# xmcd
#
# Track frame offsets:
#	150
#	16500
#	29400
#	46125
#	60675
#	86550
#	87750
#	107925
#	131925
#	146325
#	169275
#	192900
#	210600
#	230925
#	246150
#	267600
#	285600
#	305550
#	323325
#
# Disc length: 4496 seconds
#
# Revision: 1
# Processed by: cddbd v1.5.1PL2 Copyright (c) Steve Scherf et al.
# Submitted via: EasyCDDAExtractor 6.2.0.3
#
DISCID=12118e13
DTITLE=Jerry Jeff Walker and The Gonzo Survivors - Doc Rickett's Lab, Monterey, 
DTITLE=CA (02/18/1991) [CD3]
DYEAR=1991
DGENRE=Country
TTITLE0=Announcer Intro/Love Makes Livin' Worthwhile
TTITLE1=Pickup Truck Song
TTITLE2=Up Against The Wall Redneck Mother
TTITLE3=Backslider's Wine
TTITLE4=Desperados Waiting For A Train
TTITLE5=Band Intro's
TTITLE6=London Homesick Blues
TTITLE7=Blue Mood
TTITLE8=Navajo Rug
TTITLE9=Mr. Bojangles
TTITLE10=L.A. Freeway
TTITLE11=Got Lucky Last Night
TTITLE12=Nolan Ryan
TTITLE13=Jaded Lover
TTITLE14=Night Rider's Lament
TTITLE15=Ro-deo-deo Cowboy
TTITLE16=Pick Up The Tempo
TTITLE17=Sangria Wine
TTITLE18=Gettin' By
EXTD=
EXTT0=
EXTT1=
EXTT2=
EXTT3=
EXTT4=
EXTT5=
EXTT6=
EXTT7=
EXTT8=
EXTT9=
EXTT10=
EXTT11=
EXTT12=
EXTT13=
EXTT14=
EXTT15=
EXTT16=
EXTT17=
EXTT18=
PLAYORDER=
